<mxfile host="app.diagrams.net" modified="2022-04-04T12:52:11.248Z" agent="5.0 (X11)" etag="wYNblWExD9wenXxTc9rR" version="17.4.0" type="github">
  <diagram id="Mtu2LjgbH1QKWpd-V6R2" name="Page-1">
    <mxGraphModel dx="983" dy="1175" grid="1" gridSize="10" guides="1" tooltips="1" connect="1" arrows="1" fold="1" page="1" pageScale="1" pageWidth="827" pageHeight="1169" math="0" shadow="0">
      <root>
        <mxCell id="0" />
        <mxCell id="1" parent="0" />
        <mxCell id="wL2F0BoD8RNo7xgH3Krq-1" value="" style="shadow=0;dashed=0;html=1;strokeColor=none;fillColor=#EF8F21;labelPosition=center;verticalLabelPosition=bottom;verticalAlign=top;align=center;outlineConnect=0;shape=mxgraph.veeam.vsphere" parent="1" vertex="1">
          <mxGeometry x="80" y="409.2" width="44.8" height="44.8" as="geometry" />
        </mxCell>
        <mxCell id="wL2F0BoD8RNo7xgH3Krq-21" style="edgeStyle=orthogonalEdgeStyle;rounded=0;orthogonalLoop=1;jettySize=auto;html=1;endArrow=none;endFill=0;exitX=0;exitY=0.5;exitDx=0;exitDy=0;exitPerimeter=0;" parent="1" source="mQaUnpxEx9PQrwTs-Cjj-13" target="wL2F0BoD8RNo7xgH3Krq-3" edge="1">
          <mxGeometry relative="1" as="geometry">
            <Array as="points">
              <mxPoint x="380" y="560" />
              <mxPoint x="380" y="490" />
              <mxPoint x="201" y="490" />
            </Array>
            <mxPoint x="245" y="510" as="sourcePoint" />
          </mxGeometry>
        </mxCell>
        <mxCell id="wL2F0BoD8RNo7xgH3Krq-22" style="edgeStyle=orthogonalEdgeStyle;rounded=0;orthogonalLoop=1;jettySize=auto;html=1;endArrow=none;endFill=0;" parent="1" source="mQaUnpxEx9PQrwTs-Cjj-13" target="wL2F0BoD8RNo7xgH3Krq-2" edge="1">
          <mxGeometry relative="1" as="geometry">
            <Array as="points">
              <mxPoint x="380" y="490" />
              <mxPoint x="305" y="490" />
            </Array>
            <mxPoint x="245" y="510" as="sourcePoint" />
          </mxGeometry>
        </mxCell>
        <mxCell id="wL2F0BoD8RNo7xgH3Krq-25" style="edgeStyle=orthogonalEdgeStyle;rounded=0;orthogonalLoop=1;jettySize=auto;html=1;endArrow=none;endFill=0;" parent="1" source="mQaUnpxEx9PQrwTs-Cjj-13" target="wL2F0BoD8RNo7xgH3Krq-4" edge="1">
          <mxGeometry relative="1" as="geometry">
            <mxPoint x="450" y="510" as="targetPoint" />
            <Array as="points">
              <mxPoint x="380" y="490" />
              <mxPoint x="409" y="490" />
            </Array>
            <mxPoint x="355" y="510" as="sourcePoint" />
          </mxGeometry>
        </mxCell>
        <mxCell id="wL2F0BoD8RNo7xgH3Krq-26" style="edgeStyle=orthogonalEdgeStyle;rounded=0;orthogonalLoop=1;jettySize=auto;html=1;exitX=0.5;exitY=0;exitDx=0;exitDy=0;exitPerimeter=0;endArrow=none;endFill=0;" parent="1" target="wL2F0BoD8RNo7xgH3Krq-5" edge="1">
          <mxGeometry relative="1" as="geometry">
            <mxPoint x="513" y="510" as="sourcePoint" />
          </mxGeometry>
        </mxCell>
        <mxCell id="wL2F0BoD8RNo7xgH3Krq-27" style="edgeStyle=orthogonalEdgeStyle;rounded=0;orthogonalLoop=1;jettySize=auto;html=1;exitX=1;exitY=0.5;exitDx=0;exitDy=0;exitPerimeter=0;endArrow=none;endFill=0;" parent="1" source="mQaUnpxEx9PQrwTs-Cjj-13" target="wL2F0BoD8RNo7xgH3Krq-6" edge="1">
          <mxGeometry relative="1" as="geometry">
            <Array as="points">
              <mxPoint x="513" y="560" />
              <mxPoint x="513" y="490" />
              <mxPoint x="617" y="490" />
            </Array>
            <mxPoint x="513" y="510" as="sourcePoint" />
          </mxGeometry>
        </mxCell>
        <mxCell id="wL2F0BoD8RNo7xgH3Krq-19" value="" style="group" parent="1" vertex="1" connectable="0">
          <mxGeometry x="160" y="375" width="498" height="79" as="geometry" />
        </mxCell>
        <mxCell id="wL2F0BoD8RNo7xgH3Krq-2" value="" style="sketch=0;pointerEvents=1;shadow=0;dashed=0;html=1;strokeColor=none;fillColor=#005F4B;labelPosition=center;verticalLabelPosition=bottom;verticalAlign=top;align=center;outlineConnect=0;shape=mxgraph.veeam2.esxi_host;" parent="wL2F0BoD8RNo7xgH3Krq-19" vertex="1">
          <mxGeometry x="104" width="82" height="79" as="geometry" />
        </mxCell>
        <mxCell id="wL2F0BoD8RNo7xgH3Krq-3" value="" style="sketch=0;pointerEvents=1;shadow=0;dashed=0;html=1;strokeColor=none;fillColor=#005F4B;labelPosition=center;verticalLabelPosition=bottom;verticalAlign=top;align=center;outlineConnect=0;shape=mxgraph.veeam2.esxi_host;" parent="wL2F0BoD8RNo7xgH3Krq-19" vertex="1">
          <mxGeometry width="82" height="79" as="geometry" />
        </mxCell>
        <mxCell id="wL2F0BoD8RNo7xgH3Krq-4" value="" style="sketch=0;pointerEvents=1;shadow=0;dashed=0;html=1;strokeColor=none;fillColor=#005F4B;labelPosition=center;verticalLabelPosition=bottom;verticalAlign=top;align=center;outlineConnect=0;shape=mxgraph.veeam2.esxi_host;" parent="wL2F0BoD8RNo7xgH3Krq-19" vertex="1">
          <mxGeometry x="208" width="82" height="79" as="geometry" />
        </mxCell>
        <mxCell id="wL2F0BoD8RNo7xgH3Krq-5" value="" style="sketch=0;pointerEvents=1;shadow=0;dashed=0;html=1;strokeColor=none;fillColor=#005F4B;labelPosition=center;verticalLabelPosition=bottom;verticalAlign=top;align=center;outlineConnect=0;shape=mxgraph.veeam2.esxi_host;" parent="wL2F0BoD8RNo7xgH3Krq-19" vertex="1">
          <mxGeometry x="312" width="82" height="79" as="geometry" />
        </mxCell>
        <mxCell id="wL2F0BoD8RNo7xgH3Krq-6" value="" style="sketch=0;pointerEvents=1;shadow=0;dashed=0;html=1;strokeColor=none;fillColor=#005F4B;labelPosition=center;verticalLabelPosition=bottom;verticalAlign=top;align=center;outlineConnect=0;shape=mxgraph.veeam2.esxi_host;" parent="wL2F0BoD8RNo7xgH3Krq-19" vertex="1">
          <mxGeometry x="416" width="82" height="79" as="geometry" />
        </mxCell>
        <mxCell id="mQaUnpxEx9PQrwTs-Cjj-3" value="" style="sketch=0;points=[[0,0,0],[0.25,0,0],[0.5,0,0],[0.75,0,0],[1,0,0],[0,1,0],[0.25,1,0],[0.5,1,0],[0.75,1,0],[1,1,0],[0,0.25,0],[0,0.5,0],[0,0.75,0],[1,0.25,0],[1,0.5,0],[1,0.75,0]];outlineConnect=0;fontColor=#232F3E;gradientColor=#60A337;gradientDirection=north;fillColor=#277116;strokeColor=#ffffff;dashed=0;verticalLabelPosition=bottom;verticalAlign=top;align=center;html=1;fontSize=12;fontStyle=0;aspect=fixed;shape=mxgraph.aws4.resourceIcon;resIcon=mxgraph.aws4.elastic_block_store;" vertex="1" parent="1">
          <mxGeometry x="411.75" y="640" width="78" height="78" as="geometry" />
        </mxCell>
        <mxCell id="mQaUnpxEx9PQrwTs-Cjj-13" value="" style="outlineConnect=0;dashed=0;verticalLabelPosition=bottom;verticalAlign=top;align=center;html=1;shape=mxgraph.aws3.vpc_peering;fillColor=#F58536;gradientColor=none;" vertex="1" parent="1">
          <mxGeometry x="400" y="510" width="101.5" height="100" as="geometry" />
        </mxCell>
        <mxCell id="mQaUnpxEx9PQrwTs-Cjj-14" value="" style="sketch=0;pointerEvents=1;shadow=0;dashed=0;html=1;strokeColor=none;fillColor=#DF8C42;labelPosition=center;verticalLabelPosition=bottom;verticalAlign=top;align=center;outlineConnect=0;shape=mxgraph.veeam2.vmware_vsan;" vertex="1" parent="1">
          <mxGeometry x="124.8" y="420" width="34" height="34" as="geometry" />
        </mxCell>
      </root>
    </mxGraphModel>
  </diagram>
</mxfile>
